<svg width="1792" height="152" viewBox="0 0 1792 152" fill="none" xmlns="http://www.w3.org/2000/svg">
<path d="M998.25 69.4262C991.88 66.1955 984.803 63.3332 977.218 60.9195L977.148 60.8981C969.263 58.5111 963.6 56.7169 958.787 55.0828C954.012 53.4594 950.308 51.537 947.738 49.3422C946.555 48.349 944.981 46.5761 944.981 42.6458C944.981 39.084 946.138 36.6916 948.696 34.908C951.828 32.7667 955.827 31.7467 960.564 31.8535H960.693C966.271 31.8535 970.377 33.1832 973.246 35.912C976.094 38.6194 977.528 41.5831 977.635 44.9741L977.753 48.5893C977.78 49.4704 978.508 50.1753 979.397 50.1753H1016.13C1017.06 50.1753 1017.81 49.401 1017.77 48.4771L1017.62 44.5949C1017.27 35.5061 1014.59 27.4907 1009.63 20.7355C1004.71 14.1031 997.934 8.91791 989.503 5.31871C981.233 1.78892 971.677 0 961.1 0C950.522 0 941.197 1.75688 933.044 5.20657C924.64 8.71499 917.889 13.8254 912.986 20.3937C907.954 27.1329 905.491 35.2177 905.657 44.424C905.668 55.4139 909.276 64.3905 916.358 71.0923C922.953 77.3883 932.503 82.5307 944.762 86.3863L950.838 88.2767C955.688 89.7879 960.329 91.2297 964.767 92.6288C970.361 94.391 974.809 96.6232 977.994 99.2558C981.051 101.787 981.693 105.504 981.693 108.179C981.693 111.832 980.376 114.448 977.427 116.664C974.14 119.126 969.429 120.376 963.418 120.376C956.367 120.376 951.111 118.704 947.347 115.26C943.638 111.864 941.737 107.832 941.545 102.935L941.4 99.3466C941.363 98.4708 940.64 97.7766 939.762 97.7766H903.677C902.761 97.7766 902.023 98.5189 902.033 99.4321L902.076 103.213C902.189 113.514 905.058 122.48 910.593 129.865C915.978 137.053 923.408 142.623 932.675 146.419C941.695 150.115 952.128 151.989 963.674 151.989H969.065V151.754C978.942 151.231 987.56 149.244 994.744 145.827C1003.46 141.677 1010.15 136.081 1014.61 129.182C1019.13 122.191 1021.42 114.523 1021.42 106.39C1021.42 97.2106 1019.22 89.4995 1014.88 83.4866C1010.68 77.6179 1005.09 72.8812 998.25 69.4155V69.4262Z" fill="#fff"/>
<path d="M1132.87 92.1701C1132.87 101.328 1130.65 107.811 1126.07 112.003C1121.43 116.291 1115.04 118.374 1106.53 118.374C1098.02 118.374 1091.42 116.238 1086.88 112.003C1082.44 107.902 1080.19 101.232 1080.19 92.1701V3.99487C1080.19 3.0924 1079.46 2.35547 1078.55 2.35547H1043.79C1042.89 2.35547 1042.15 3.08706 1042.15 3.99487V91.9778C1042.15 105.28 1045.06 116.563 1050.8 125.513C1056.55 134.463 1064.39 141.213 1074.11 145.555C1083.54 149.821 1094.22 151.99 1105.85 152H1105.96C1117.46 151.99 1128.22 149.827 1137.95 145.576C1147.9 141.208 1155.95 134.485 1161.88 125.594C1167.86 116.628 1170.89 105.317 1170.89 91.9832V3.99487C1170.89 3.0924 1170.16 2.35547 1169.25 2.35547H1134.5C1133.59 2.35547 1132.85 3.08706 1132.85 3.99487V92.1701H1132.87Z" fill="#fff"/>
<path d="M1283.49 80.4751L1241.15 3.25773C1240.86 2.73441 1240.31 2.40332 1239.71 2.40332H1201.35C1200.44 2.40332 1199.7 3.13491 1199.7 4.04272V144.278L1199.74 148.032C1199.75 148.929 1200.48 149.656 1201.39 149.656H1236.15C1237.06 149.656 1237.8 148.924 1237.8 148.016V77.207C1237.8 75.5142 1240.05 74.9321 1240.88 76.4113L1270.3 129.31C1270.59 129.828 1271.14 130.154 1271.74 130.154H1297.66C1298.25 130.154 1298.8 129.833 1299.09 129.31L1328.52 76.4113C1329.34 74.9321 1331.59 75.5142 1331.59 77.207V148.016C1331.59 148.919 1332.33 149.656 1333.24 149.656H1367.99C1368.9 149.656 1369.63 148.924 1369.63 148.016V4.04272C1369.63 3.14025 1368.9 2.40332 1367.99 2.40332H1329.61C1329.01 2.40332 1328.46 2.7344 1328.17 3.26307L1286.38 80.4698C1285.76 81.6126 1284.12 81.6179 1283.5 80.4751H1283.49Z" fill="#fff"/>
<path d="M1483.13 80.4746L1440.79 3.25187C1440.5 2.72854 1439.95 2.39746 1439.35 2.39746H1400.99C1400.08 2.39746 1399.34 3.12905 1399.34 4.03686V144.278L1399.38 148.032C1399.39 148.929 1400.12 149.655 1401.03 149.655H1435.79C1436.7 149.655 1437.44 148.924 1437.44 148.016V77.2065C1437.44 75.5137 1439.69 74.9316 1440.52 76.4108L1469.94 129.31C1470.23 129.828 1470.78 130.153 1471.38 130.153H1497.3C1497.89 130.153 1498.44 129.833 1498.73 129.31L1528.16 76.4108C1528.98 74.9316 1531.23 75.5137 1531.23 77.2065V148.016C1531.23 148.918 1531.97 149.655 1532.88 149.655H1567.63C1568.54 149.655 1569.27 148.924 1569.27 148.016V4.0422C1569.27 3.13973 1568.54 2.4028 1567.63 2.4028H1529.26C1528.65 2.4028 1528.1 2.73388 1527.81 3.26255L1486.03 80.4693C1485.41 81.612 1483.77 81.6174 1483.14 80.4746H1483.13Z" fill="#fff"/>
<path d="M1635.28 2.40332H1600.54C1599.63 2.40332 1598.89 3.1373 1598.89 4.04272V148.011C1598.89 148.916 1599.63 149.65 1600.54 149.65H1635.28C1636.19 149.65 1636.93 148.916 1636.93 148.011V4.04272C1636.93 3.1373 1636.19 2.40332 1635.28 2.40332Z" fill="#fff"/>
<path d="M1666.78 4.04272V31.5815C1666.78 32.4839 1667.51 33.2209 1668.42 33.2209H1708.62C1709.53 33.2209 1710.27 33.9524 1710.27 34.8603V148.016C1710.27 148.919 1711 149.656 1711.91 149.656H1746.66C1747.57 149.656 1748.31 148.924 1748.31 148.016V34.8549C1748.31 33.9524 1749.04 33.2155 1749.95 33.2155H1790.36C1791.26 33.2155 1792 32.4839 1792 31.5761V4.04272C1792 3.14025 1791.27 2.40332 1790.36 2.40332H1668.43C1667.53 2.40332 1666.79 3.13491 1666.79 4.04272H1666.78Z" fill="#fff"/>
<path d="M585.883 26.3493V2.97585C585.883 2.21222 585.262 1.59277 584.496 1.59277H566.783C566.017 1.59277 565.396 2.21222 565.396 2.97585V26.3493C565.396 27.113 564.775 27.7324 564.01 27.7324H540.21C539.444 27.7324 538.823 28.3519 538.823 29.1155V47.3678C538.823 48.1315 539.444 48.7509 540.21 48.7509H564.01C564.775 48.7509 565.396 49.3704 565.396 50.134V73.5075C565.396 74.2711 566.017 74.8905 566.783 74.8905H584.496C585.262 74.8905 585.883 74.2711 585.883 73.5075V50.134C585.883 49.3704 586.504 48.7509 587.269 48.7509H610.924C611.69 48.7509 612.311 48.1315 612.311 47.3678V29.1155C612.311 28.3519 611.69 27.7324 610.924 27.7324H587.269C586.504 27.7324 585.883 27.113 585.883 26.3493Z" fill="#fff"/>
<path d="M634.917 122.209L624.489 148.439C624.232 149.048 623.654 149.459 623.017 149.459H587.697C586.546 149.459 585.781 148.279 586.23 147.227L648.926 2.54865C649.183 1.97192 649.761 1.59277 650.398 1.59277H687.126C687.763 1.59277 688.341 1.97726 688.598 2.58069L749.827 147.227C750.271 148.279 749.506 149.427 748.355 149.427H711.531C710.862 149.427 710.284 149.011 710.027 148.407L699.791 122.177H634.885L634.917 122.209ZM667.608 38.9893L645.987 93.6823H688.85L667.608 38.9893Z" fill="#fff"/>
<path d="M764.569 147.968V3.32129C764.569 2.4295 765.276 1.72461 766.17 1.72461H800.751C801.65 1.72461 802.351 2.42416 802.351 3.32129V147.968C802.351 148.86 801.65 149.564 800.751 149.564H766.17C765.276 149.564 764.569 148.865 764.569 147.968Z" fill="#fff"/>
<path d="M62.5727 149.784H1.60058C0.706612 149.784 0 149.079 0 148.188V3.32208C0 2.43029 0.701259 1.69336 1.60058 1.69336H64.0769C81.1908 1.69336 95.6175 5.04158 107.357 11.6472C119.642 18.7335 128.727 27.9505 134.519 39.186C140.311 50.4482 143.217 62.6075 143.217 75.6266C143.217 91.5507 139.668 105.045 132.501 116.088C124.856 127.639 114.905 136.13 102.652 141.582C90.3661 147.039 77.0261 149.784 62.5994 149.784H62.5673H62.5727ZM65.1315 118.513C71.4963 118.513 77.6096 117.044 83.4927 114.075C89.3811 111.106 94.2417 106.353 98.1442 99.8118C101.758 93.5265 103.551 85.6446 103.551 76.0378C103.551 66.431 101.634 58.1699 97.823 51.8526C93.6315 45.2149 88.4818 40.4623 82.3418 37.5573C76.2017 34.6523 69.8315 33.1837 63.2418 33.1837H38.8316V118.507H65.1261L65.1315 118.513Z" fill="#fff"/>
<path d="M306.53 149.784H268.651C267.976 149.784 267.404 149.367 267.147 148.764L257.356 123.585H193.054L183.044 148.796C182.787 149.405 182.214 149.816 181.572 149.816H145.229C144.078 149.816 143.313 148.636 143.757 147.584L206.239 2.68634C206.496 2.10961 207.069 1.73047 207.711 1.73047H245.493C246.136 1.73047 246.708 2.11495 246.965 2.71838L308.002 147.589C308.451 148.641 307.681 149.789 306.53 149.789V149.784ZM245.911 94.0068L225.564 41.1989L204.772 94.0068H245.911Z" fill="#fff"/>
<path d="M371.598 149.783H335.962C335.068 149.783 334.362 149.078 334.362 148.187V33.6048H291.847C290.953 33.6048 290.247 32.9053 290.247 32.0081V3.32129C290.247 2.4295 290.953 1.72461 291.847 1.72461H416.19C417.083 1.72461 417.79 2.42416 417.79 3.32129V32.0081C417.79 32.8999 417.089 33.6048 416.19 33.6048H373.225V148.192C373.225 149.084 372.492 149.789 371.593 149.789L371.598 149.783Z" fill="#fff"/>
<path d="M562.641 149.784H524.762C524.088 149.784 523.515 149.367 523.258 148.764L513.467 123.585H449.198L439.182 148.796C438.925 149.405 438.352 149.816 437.71 149.816H401.335C400.184 149.816 399.414 148.636 399.863 147.584L462.35 2.68634C462.607 2.10961 463.18 1.73047 463.822 1.73047H501.605C502.247 1.73047 502.82 2.11495 503.077 2.71838L564.113 147.589C564.563 148.641 563.792 149.789 562.641 149.789V149.784ZM502.022 94.0068L481.675 41.1989L460.884 94.0068H502.022Z" fill="#fff"/>
</svg>
